<?xml version="1.0" encoding="utf-8"?>
<!-- Generator: Adobe Illustrator 23.0.3, SVG Export Plug-In . SVG Version: 6.00 Build 0)  -->
<svg version="1.1" id="Layer_1" xmlns="http://www.w3.org/2000/svg" xmlns:xlink="http://www.w3.org/1999/xlink" x="0px" y="0px"
	 viewBox="0 0 241.7 113.3" style="enable-background:new 0 0 241.7 113.3;" xml:space="preserve">
<path d="M91.5,51.2C77,40.3,48.7,35.5,28.2,36.9c17.5,18.7,43,70.9,45.5,76.4C81.3,98.1,90.3,59.1,91.5,51.2z M46.8,64.9
	c-11-6.6-34.2-10-46.8-9.2C9.4,67,25.2,87.2,33.1,104.2C36.6,95.5,44.5,72.6,46.8,64.9z M165.5,60.6c0.4-0.3,0.9-0.7,1.3-1
	C144.9,33.2,114.2,8,68.7,0c11,15.5,34.2,76.6,44.4,113.3C130.4,98.8,156,69.7,165.5,60.6z M241.7,37.7c-33.3-0.6-52,4.3-74.9,21.9
	c15.1,18.2,26,36.9,34.6,50.9C216.3,72.9,228,56.2,241.7,37.7z"/>
</svg>
